<?xml version="1.0" encoding="UTF-8"?>
<svg viewBox="0 0 400 300" xmlns="http://www.w3.org/2000/svg">
  <!-- Axes -->
  <line x1="40" y1="250" x2="360" y2="250" stroke="black" stroke-width="2"/>
  <line x1="200" y1="280" x2="200" y2="20" stroke="black" stroke-width="2"/>

  <!-- Axis labels -->
  <text x="340" y="270" font-size="14" font-family="monospace">Score z</text>
  <text x="50" y="40" font-size="14" font-family="monospace">Probability</text>

  <!-- Y-axis markers -->
  <line x1="35" y1="50" x2="45" y2="50" stroke="black" stroke-width="1"/>
  <text x="10" y="55" font-size="12" font-family="monospace">1.0</text>
  <line x1="35" y1="150" x2="45" y2="150" stroke="black" stroke-width="1"/>
  <text x="10" y="155" font-size="12" font-family="monospace">0.5</text>
  <line x1="35" y1="250" x2="45" y2="250" stroke="black" stroke-width="1"/>
  <text x="10" y="255" font-size="12" font-family="monospace">0.0</text>

  <!-- X-axis markers -->
  <line x1="120" y1="245" x2="120" y2="255" stroke="black" stroke-width="1"/>
  <text x="110" y="270" font-size="12" font-family="monospace">-3</text>
  <line x1="280" y1="245" x2="280" y2="255" stroke="black" stroke-width="1"/>
  <text x="273" y="270" font-size="12" font-family="monospace">+3</text>

  <!-- Sigmoid curve -->
  <path d="M 40,250 Q 80,249 120,235 Q 160,200 200,150 Q 240,100 280,65 Q 320,51 360,50"
        fill="none" stroke="steelblue" stroke-width="2.5"/>

  <!-- Reference line at 0.5 -->
  <line x1="40" y1="150" x2="360" y2="150" stroke="gray" stroke-width="1" stroke-dasharray="3,3"/>

  <!-- Label -->
  <text x="250" y="120" font-size="13" font-family="monospace" fill="steelblue">σ(z)</text>
</svg>